<?xml version="1.0" encoding="UTF-8" standalone="no"?>
<!-- Created with Inkscape (http://www.inkscape.org/) -->

<svg
   version="1.1"
   id="svg350"
   width="200"
   height="200"
   viewBox="0 0 200 200"
   sodipodi:docname="ExtremeProDark.svg"
   xml:space="preserve"
   inkscape:version="1.2-beta (1b65182ce9, 2022-04-05)"
   inkscape:export-filename="ExtremeProDark_200x200.png"
   inkscape:export-xdpi="96.308647"
   inkscape:export-ydpi="96.308647"
   xmlns:inkscape="http://www.inkscape.org/namespaces/inkscape"
   xmlns:sodipodi="http://sodipodi.sourceforge.net/DTD/sodipodi-0.dtd"
   xmlns="http://www.w3.org/2000/svg"
   xmlns:svg="http://www.w3.org/2000/svg"><defs
     id="defs354" /><sodipodi:namedview
     id="namedview352"
     pagecolor="#505050"
     bordercolor="#eeeeee"
     borderopacity="1"
     inkscape:pageshadow="0"
     inkscape:pageopacity="0"
     inkscape:pagecheckerboard="0"
     inkscape:deskcolor="#505050"
     showgrid="false"
     inkscape:zoom="3.3885179"
     inkscape:cx="119.66884"
     inkscape:cy="104.91312"
     inkscape:window-width="1920"
     inkscape:window-height="1028"
     inkscape:window-x="1913"
     inkscape:window-y="-6"
     inkscape:window-maximized="1"
     inkscape:current-layer="g312"
     showguides="true"><sodipodi:guide
       position="49.612193,201.02332"
       orientation="0,-1"
       id="guide4100" /></sodipodi:namedview><g
     inkscape:groupmode="layer"
     inkscape:label="Image"
     id="g356"><rect
       style="fill:#3c3c3c;fill-opacity:1;stroke:none;stroke-width:2.31063;stroke-linejoin:round;stroke-dashoffset:128.504"
       id="rect2954"
       width="199.35904"
       height="199.0251"
       x="0.33393389"
       y="0.66786766" /><g
       id="g312"
       transform="translate(0,-18.897639)"><rect
         style="fill:#ffa500;fill-opacity:1;stroke-width:1.13386;stroke-linejoin:round;stroke-dashoffset:128.504"
         id="rect474"
         width="125.62373"
         height="30.884241"
         x="12.189721"
         y="29.228161" /><g
         id="g416"
         transform="translate(0.29511546,17.296308)"><rect
           style="fill:#557bb6;fill-opacity:1;stroke:none;stroke-width:1.29847;stroke-linejoin:round;stroke-dashoffset:128.504"
           id="rect2958"
           width="195.54831"
           height="53.155418"
           x="2.2258441"
           y="46.914646"
           ry="8.9234276" /><text
           xml:space="preserve"
           style="font-style:normal;font-variant:normal;font-weight:bold;font-stretch:normal;font-size:45.8069px;line-height:1.25;font-family:Arial;-inkscape-font-specification:'Arial Bold';fill:#ffffff;stroke-width:1.14517"
           x="9.4485559"
           y="89.433853"
           id="text615"><tspan
             sodipodi:role="line"
             id="tspan613"
             x="9.4485559"
             y="89.433853"
             style="stroke-width:1.14517">ProDark</tspan></text><g
           id="g3935"
           transform="matrix(1.1451733,0,0,1.1451733,89.048525,-46.939892)"><path
             style="fill:#5173ad;stroke-width:0.355161"
             d="M -69.421351,65.045232 V 49.595749 h 56.648104 56.6481 v 15.449483 15.449483 h -56.6481 -56.648104 z m 65.5837639,10.485074 1.83246,-1.050978 0.74246,-1.042689 0.74245997,-1.042689 v -0.363568 -0.363568 l -1.89834997,-0.237183 -1.89835,-0.237183 -0.99479,0.921948 -0.99481,0.921948 h -1.07444 -1.07444 l -0.6495,-0.587787 -0.6495,-0.587786 v -1.188016 -1.188016 h 4.93193 4.93191997 l 0.21361,-1.509433 0.21362,-1.509432 -0.31527,-1.339869 -0.31528,-1.339868 -0.58763,-0.896841 -0.58763997,-0.89684 -1.13497,-0.715408 -1.13498,-0.715408 -2.6637,0.13578 -2.6637,0.135781 -1.4810299,0.980145 -1.48104,0.980145 -0.91008,1.375224 -0.91008,1.375225 -0.58556,2.106149 -0.58556,2.10615 0.24204,1.614032 0.24204,1.614033 0.78125,1.144203 0.78125,1.144204 1.23752,0.657619 1.23752,0.657619 2.3140899,-0.0033 2.31408,-0.0033 1.83245,-1.050978 z m -5.20648,-9.269332 v -0.382481 l 1.03817,-1.038161 1.03816,-1.038162 0.82643,0.0054 0.82643,0.0054 0.39078,0.260932 0.39078,0.260932 0.40833,0.775762 0.40833,0.775763 v 0.378509 0.378509 h -2.6637 -2.66371 v -0.38248 z m 45.0455901,9.402357 1.85547,-0.924619 0.87797,-1.151078 0.87797,-1.151079 v -0.384871 -0.38487 l -1.94371,-0.24285 -1.94371,-0.24285 -1.1024,0.927615 -1.10241,0.927615 h -0.92148 -0.92147 l -0.6495,-0.587787 -0.6495,-0.587786 v -1.188016 -1.188016 h 4.92686 4.92685 l 0.20229,-1.331852 0.20229,-1.331852 -0.28414,-1.494948 -0.28414,-1.494948 -0.60237,-0.919341 -0.60238,-0.919342 -1.13497,-0.715408 -1.13498,-0.715408 -2.6637,0.13578 -2.6637,0.135781 -1.48103,0.980145 -1.48104,0.980145 -0.8388,1.303451 -0.83881,1.303451 -0.41853,0.962391 -0.41852,0.962392 -0.22689,1.710321 -0.22688,1.710321 0.39154,1.454058 0.39154,1.454058 0.69439,0.882774 0.69439,0.882773 1.16899,0.576147 1.169,0.576147 2.15002,0.0081 2.15002,0.0081 z m -4.91245,-9.402357 v -0.382481 l 1.03817,-1.038161 1.03816,-1.038162 h 0.88944 0.88945 l 0.73609,0.935798 0.7361,0.935798 v 0.484844 0.484844 h -2.6637 -2.66371 z m -84.618791,8.107222 0.318749,-1.864593 -0.13504,-0.26637 -0.13504,-0.266371 h -3.530644 -3.530645 v -0.375536 -0.375537 l 0.407209,-2.465747 0.40721,-2.465748 h 3.478596 3.478595 l 0.177237,-0.286775 0.177236,-0.286774 0.24464,-1.844189 0.244641,-1.844188 h -3.621295 -3.621294 l 0.181284,-0.621531 0.181283,-0.621531 0.238137,-1.687013 0.238137,-1.687012 h 3.667898 3.667899 l 0.157935,-0.266371 0.157935,-0.26637 0.251514,-1.864593 0.251513,-1.864593 h -6.170241 -6.170242 l -1.728615,11.098767 -1.728615,11.098766 -0.163581,0.443951 -0.163581,0.443951 h 6.226218 6.226218 z m 7.964864,-0.647734 2.014125,-2.502322 1.464356,2.507324 1.464357,2.507325 h 2.82519 2.825189 l -2.529821,-4.107645 -2.529821,-4.107645 1.013428,-1.130973 1.013429,-1.130973 2.306407,-2.397334 2.306407,-2.397333 -3.009339,0.008 -3.00934,0.008 -1.243061,1.73728 -1.243062,1.737281 -0.38909,-0.322576 -0.389089,-0.322576 -0.641542,-1.422685 -0.641542,-1.422685 h -2.787344 -2.787345 v 0.161488 0.161487 l 1.928371,3.282023 1.92837,3.282023 -2.429304,2.683009 -2.429303,2.683008 -1.27487,1.223943 -1.274869,1.223942 v 0.28549 0.28549 l 2.752494,-0.005 2.752494,-0.005 2.014125,-2.502322 z m 16.410091,1.890796 0.181313,-0.621531 0.776572,-5.061038 0.776573,-5.061037 h 1.328119 1.328123 l 0.220139,-1.331852 0.220143,-1.331852 0.0039,-0.621531 0.0039,-0.621531 h -1.271266 -1.271279 l 0.192348,-0.976692 0.192347,-0.976691 0.231359,-1.687013 0.231359,-1.687012 h -2.308544 -2.308543 l -0.231359,1.687012 -0.231359,1.687013 -0.192347,0.976691 -0.192348,0.976692 h -0.658169 -0.658166 l -0.170502,0.621531 -0.170502,0.621531 -0.224685,1.331852 -0.224689,1.331852 h 0.726417 0.726413 v 0.201297 0.201298 l -0.711269,4.68216 -0.711269,4.682159 -0.183398,0.799111 -0.183398,0.799112 h 2.291375 2.291375 z m 8.524648,-3.526938 0.620128,-4.148469 0.481051,-1.151314 0.48105,-1.151315 0.925062,-0.606123 0.925062,-0.606124 1.398345,0.187557 1.39835,0.187558 0.54754,-1.883474 0.54754,-1.883474 v -0.211708 -0.211709 l -1.68701,0.0013 -1.687016,0.0013 -1.154271,0.703773 -1.154272,0.703773 v -0.52752 -0.527494 h -2.263083 -2.263083 l -0.936043,5.948939 -0.936047,5.948939 -0.223172,1.687012 -0.223173,1.687013 h 2.291457 2.291457 z m 26.8171679,-0.713547 0.76439,-4.862015 0.63287,-1.086924 0.63288,-1.086923 0.80068,-0.116054 0.80067,-0.116053 0.5131901,0.425911 0.51319,0.425912 v 1.203398 1.203397 l -0.54049,3.458992 -0.5404901,3.458992 -0.19805,0.976691 -0.19805,0.976692 h 2.3085501 2.30854 l 0.19805,-0.976692 0.19805,-0.976691 0.53511,-3.425533 0.5351,-3.425534 0.38527,-1.013323 0.38526,-1.013324 0.56307,-0.62218 0.56307,-0.622181 h 0.81189 0.8119 l 0.25295,0.409287 0.25295,0.409288 -0.0581,1.640301 -0.0581,1.640301 -0.64406,3.98814 -0.64405,3.988141 h 2.34355 2.34356 l 0.80078,-5.416198 0.80079,-5.416198 -0.0105,-0.994329 -0.0105,-0.994329 -0.53641,-1.037316 -0.53642,-1.037315 -0.6833,-0.36569 -0.68329,-0.365689 -1.71036,0.0043 -1.71036,0.0043 -1.58618,0.90662 -1.58617,0.90662 -0.36721,-0.497725 -0.36721,-0.497728 -0.77576,-0.413173 -0.77577,-0.413174 -1.53278,0.0013 -1.5327801,0.0013 -1.15427,0.703773 -1.15427,0.703773 v -0.52752 -0.527494 h -2.24563 -2.24563 l -0.98792,6.48168 -0.98792,6.481679 -0.18695003,1.154272 -0.18694,1.154272 h 2.30759003 2.30758 z"
             id="path3937" /></g></g><text
         xml:space="preserve"
         style="font-style:normal;font-variant:normal;font-weight:normal;font-stretch:normal;font-size:55.2344px;line-height:1.25;font-family:Impact;-inkscape-font-specification:Impact;fill:#ffa500;fill-opacity:1;stroke-width:1.38086"
         x="12.77919"
         y="174.30183"
         id="text1657"><tspan
           sodipodi:role="line"
           id="tspan1655"
           x="12.77919"
           y="174.30183"
           style="font-style:normal;font-variant:normal;font-weight:normal;font-stretch:normal;font-family:Impact;-inkscape-font-specification:Impact;fill:#ffa500;fill-opacity:1;stroke-width:1.38086">REVISED</tspan></text></g><text
       xml:space="preserve"
       style="font-style:normal;font-variant:normal;font-weight:900;font-stretch:normal;font-size:28.5302px;line-height:1.25;font-family:Arial;-inkscape-font-specification:'Arial Heavy';stroke-width:0.713255;fill:#ffffff"
       x="13.030258"
       y="187.74556"
       id="text420"><tspan
         sodipodi:role="line"
         id="tspan418"
         x="13.030258"
         y="187.74556"
         style="stroke-width:0.713255;fill:#ffffff">+Linkstage</tspan></text></g></svg>
