<?xml version="1.0" encoding="UTF-8" standalone="no"?>
<!-- Created with Inkscape (http://www.inkscape.org/) -->

<svg
   width="400"
   height="400"
   id="svg2"
   version="1.1"
   inkscape:version="1.2-beta (1b65182ce9, 2022-04-05)"
   sodipodi:docname="background_freecad_ExtremProDark.svg"
   viewBox="0 0 400 400"
   xmlns:inkscape="http://www.inkscape.org/namespaces/inkscape"
   xmlns:sodipodi="http://sodipodi.sourceforge.net/DTD/sodipodi-0.dtd"
   xmlns:xlink="http://www.w3.org/1999/xlink"
   xmlns="http://www.w3.org/2000/svg"
   xmlns:svg="http://www.w3.org/2000/svg"
   xmlns:rdf="http://www.w3.org/1999/02/22-rdf-syntax-ns#"
   xmlns:cc="http://creativecommons.org/ns#"
   xmlns:dc="http://purl.org/dc/elements/1.1/">
  <defs
     id="defs4">
    <linearGradient
       id="linearGradient3864">
      <stop
         style="stop-color:#71b2f8;stop-opacity:1;"
         offset="0"
         id="stop3866" />
      <stop
         style="stop-color:#002795;stop-opacity:1;"
         offset="1"
         id="stop3868" />
    </linearGradient>
    <linearGradient
       id="linearGradient3682">
      <stop
         id="stop3684"
         offset="0"
         style="stop-color:#ff6d0f;stop-opacity:1;" />
      <stop
         id="stop3686"
         offset="1"
         style="stop-color:#ff1000;stop-opacity:1;" />
    </linearGradient>
    <inkscape:perspective
       id="perspective3148"
       inkscape:persp3d-origin="32 : 234.33333 : 1"
       inkscape:vp_z="64 : 245 : 1"
       inkscape:vp_y="0 : 1000 : 0"
       inkscape:vp_x="0 : 245 : 1"
       sodipodi:type="inkscape:persp3d" />
    <linearGradient
       id="linearGradient3864-9">
      <stop
         id="stop3866-1"
         offset="0"
         style="stop-color:#204a87;stop-opacity:1" />
      <stop
         id="stop3868-1"
         offset="1"
         style="stop-color:#729fcf;stop-opacity:1" />
    </linearGradient>
    <linearGradient
       id="linearGradient3682-0">
      <stop
         style="stop-color:#a40000;stop-opacity:1"
         offset="0"
         id="stop3684-0" />
      <stop
         style="stop-color:#ef2929;stop-opacity:1"
         offset="1"
         id="stop3686-0" />
    </linearGradient>
    <inkscape:perspective
       sodipodi:type="inkscape:persp3d"
       inkscape:vp_x="0 : 245 : 1"
       inkscape:vp_y="0 : 1000 : 0"
       inkscape:vp_z="64 : 245 : 1"
       inkscape:persp3d-origin="32 : 234.33333 : 1"
       id="perspective3148-5" />
    <radialGradient
       inkscape:collect="always"
       xlink:href="#linearGradient3682-0-6"
       id="radialGradient3817-5-3"
       gradientUnits="userSpaceOnUse"
       gradientTransform="matrix(1.2361257,0.30001695,-0.83232803,3.3883821,-499.9452,-167.33108)"
       cx="270.58316"
       cy="33.899986"
       fx="270.58316"
       fy="33.899986"
       r="19.571428" />
    <linearGradient
       id="linearGradient3682-0-6">
      <stop
         style="stop-color:#ff390f;stop-opacity:1"
         offset="0"
         id="stop3684-0-7" />
      <stop
         style="stop-color:#ff1000;stop-opacity:1;"
         offset="1"
         id="stop3686-0-5" />
    </linearGradient>
    <inkscape:perspective
       id="perspective3148-4"
       inkscape:persp3d-origin="32.000001 : 234.33333 : 1"
       inkscape:vp_z="64.000003 : 245 : 1"
       inkscape:vp_y="0 : 999.99999 : 0"
       inkscape:vp_x="0 : 245 : 1"
       sodipodi:type="inkscape:persp3d" />
  </defs>
  <sodipodi:namedview
     id="base"
     pagecolor="#ffffff"
     bordercolor="#c0c0c0"
     borderopacity="1"
     inkscape:pageopacity="0"
     inkscape:pageshadow="2"
     inkscape:zoom="1.6167345"
     inkscape:cx="207.51707"
     inkscape:cy="157.41608"
     inkscape:document-units="mm"
     inkscape:current-layer="g4964"
     showgrid="true"
     showguides="true"
     inkscape:guide-bbox="true"
     inkscape:object-nodes="true"
     guidecolor="#0092ff"
     guideopacity="0.49803922"
     guidehicolor="#ff5200"
     guidehiopacity="0.49803922"
     fit-margin-top="0"
     fit-margin-left="0"
     fit-margin-right="0"
     fit-margin-bottom="0"
     inkscape:snap-global="true"
     inkscape:window-width="1920"
     inkscape:window-height="1028"
     inkscape:window-x="1913"
     inkscape:window-y="-6"
     inkscape:window-maximized="1"
     borderlayer="true"
     units="px"
     inkscape:pagecheckerboard="0"
     inkscape:deskcolor="#d1d1d1">
    <inkscape:grid
       type="xygrid"
       id="grid2242"
       originx="-6.1718749e-05"
       originy="1.4183046e-05"
       enabled="true"
       spacingx="0.49999999"
       spacingy="0.49999999"
       empspacing="2"
       color="#c63fff"
       opacity="0.0627451" />
  </sodipodi:namedview>
  <metadata
     id="metadata7">
    <rdf:RDF>
      <cc:Work
         rdf:about="">
        <dc:format>image/svg+xml</dc:format>
        <dc:type
           rdf:resource="http://purl.org/dc/dcmitype/StillImage" />
        <dc:creator>
          <cc:Agent>
            <dc:title>Pablo Gil</dc:title>
          </cc:Agent>
        </dc:creator>
        <dc:subject>
          <rdf:Bag>
            <rdf:li>SVG</rdf:li>
            <rdf:li>template</rdf:li>
          </rdf:Bag>
        </dc:subject>
      </cc:Work>
    </rdf:RDF>
  </metadata>
  <g
     inkscape:label="Capa 1"
     inkscape:groupmode="layer"
     id="layer1"
     transform="translate(-1074.0664,-169.59799)">
    <g
       id="g647"
       transform="matrix(0.17454382,0,0,0.15822036,1055.4489,155.61999)">
      <g
         id="g4964"
         transform="matrix(1.879647,0,0,1.879647,-42.262782,-47.579632)">
        <path
           style="fill:#000000;fill-opacity:0.3672131;stroke:#000000;stroke-width:0.437367;stroke-linecap:round;stroke-linejoin:round;stroke-dashoffset:128.504;paint-order:markers fill stroke;stroke-opacity:0.50327867"
           d="m 113.1305,184.36285 c -1.5454,-0.64215 -2.9043,-1.56821 -4.19459,-2.8585 -1.17037,-1.17037 -1.6832,-2.03472 -2.746,-4.62825 l -0.78439,-1.91412 -1.20276,-0.37687 c -2.16592,-0.67866 -2.43849,-0.6041 -4.786545,1.3093 -3.565963,2.90585 -5.111846,3.55397 -8.470715,3.55137 -2.435121,-0.002 -3.372581,-0.2014 -5.889949,-1.25351 -6.460905,-2.70028 -12.393526,-6.36228 -19.11515,-11.79912 -3.411986,-2.75981 -3.385127,-2.74118 -3.751433,-2.60062 -0.179264,0.0688 -0.510838,0.96261 -0.788906,2.12664 -0.263822,1.10438 -0.792634,2.64368 -1.17514,3.42066 -1.274838,2.58956 -4.004086,4.80817 -7.194139,5.84812 -1.100346,0.35872 -2.527696,0.39895 -16.763006,0.47251 -9.493572,0.049 -16.166379,-0.004 -17.114898,-0.13504 -5.355155,-0.74211 -9.6401405,-5.78199 -9.6401405,-11.33846 0,-0.67413 0.7359675,-8.81251 1.6354835,-18.08531 C 14.141,115.25016 18.658767,68.329255 21.214959,41.549892 22.604136,26.996496 23.878198,14.224259 24.046208,13.167145 24.640453,9.4281788 27.280764,6.4202401 31.599786,4.5618319 l 1.858811,-0.7998174 59.700635,-0.022196 59.700638,-0.022196 1.53078,0.482868 c 3.7544,1.1842813 6.74977,3.9611292 8.03054,7.4446925 0.37683,1.024927 0.4587,1.721708 0.44324,3.772015 -0.0169,2.244482 -1.66922,20.378728 -2.2601,24.805152 -0.4137,3.099104 -1.46734,5.119061 -3.81638,7.316481 -1.69382,1.584481 -3.46621,2.602985 -6.27858,3.607983 -1.16722,0.417104 -2.22294,0.820623 -2.34605,0.89671 -0.56444,0.348844 -0.0722,0.768229 1.79899,1.53283 3.47031,1.418006 9.16527,4.418271 12.21734,6.436444 3.34988,2.215092 9.20303,6.850335 10.75991,8.521008 1.28535,1.379305 1.82251,2.541574 2.10936,4.56414 0.29633,2.089378 -0.003,3.544503 -1.32526,6.438422 -0.59011,1.291706 -1.07292,2.533328 -1.07292,2.759162 0,0.430422 1.14161,2.144128 1.73299,2.601441 0.21488,0.166165 1.1673,0.271708 2.53134,0.28051 3.39607,0.02191 4.99837,0.301119 6.77935,1.181327 3.82432,1.890083 6.06983,5.797863 8.18381,14.242032 1.8732,7.48238 2.4049,16.20544 1.19853,19.66311 -0.2686,0.76986 -0.79705,1.50113 -1.83447,2.53855 -1.55774,1.55774 -3.19408,2.47666 -6.41028,3.59981 -1.96027,0.68456 -2.24993,0.91599 -2.54006,2.0295 -0.5991,2.29928 -0.67036,2.13103 1.85933,4.39023 2.39814,2.14171 2.86529,2.80423 3.48821,4.94699 0.29926,1.02942 0.34697,1.72794 0.23107,3.38302 l -0.14606,2.08574 -1.65473,2.95223 c -3.54165,6.31871 -6.39426,10.1813 -11.10943,15.04278 -5.2946,5.45888 -7.51337,6.71403 -11.82234,6.68787 -1.72473,-0.0105 -3.12132,-0.38544 -7.35251,-1.97406 l -1.01069,-0.37946 -1.50418,0.86538 -1.50417,0.86538 -0.13269,2.73138 c -0.16483,3.39303 -0.56808,4.82544 -1.83169,6.50641 -1.92136,2.55596 -3.84681,3.65655 -8.89115,5.08216 -7.57283,2.1402 -15.83776,3.29113 -23.4778,3.26939 -2.70804,-0.008 -3.20488,-0.0683 -4.30262,-0.5244 z m 13.67758,-6.58871 c 5.17623,-0.63473 13.69169,-2.63705 15.52927,-3.65155 1.81123,-0.99996 2.17088,-2.24857 2.06171,-7.15763 -0.039,-1.75338 0.0286,-2.89109 0.18855,-3.17293 0.13713,-0.24166 1.11962,-0.9205 2.1833,-1.50852 1.06368,-0.58802 3.01645,-1.71295 4.33949,-2.49985 1.73393,-1.03129 2.6192,-1.4307 3.17091,-1.43065 0.43343,4e-5 2.37777,0.64263 4.48302,1.48159 4.02938,1.60576 4.93429,1.76389 6.34671,1.10909 1.07301,-0.49745 5.80973,-5.25403 8.24682,-8.28139 3.47505,-4.31673 7.0382,-10.29364 7.30739,-12.25758 l 0.1441,-1.05132 -3.42326,-3.3439 c -1.96335,-1.91783 -3.42241,-3.51435 -3.42129,-3.74358 0.003,-0.52296 1.899,-8.31356 2.21285,-9.09042 0.35197,-0.87124 1.20746,-1.31131 5.15571,-2.65218 1.94382,-0.66013 3.74599,-1.31358 4.00482,-1.45211 0.83794,-0.44845 1.08963,-1.50452 1.08963,-4.5721 0,-4.54466 -0.79926,-9.70734 -2.305,-14.888697 -1.35054,-4.647314 -2.29353,-6.632761 -3.44434,-7.25199 -0.3028,-0.162932 -2.25568,-0.314891 -5.23177,-0.407101 -3.22471,-0.09991 -4.85203,-0.232937 -5.07081,-0.414515 -0.42266,-0.350775 -5.21719,-7.141484 -5.67427,-8.03672 -0.44019,-0.862151 -0.32993,-1.207269 1.69123,-5.293776 1.79026,-3.619658 1.87252,-4.365515 0.63282,-5.73772 -1.06436,-1.178119 -5.62664,-4.83742 -8.12834,-6.519563 -5.21279,-3.505073 -12.43815,-7.015048 -14.43635,-7.012968 -1.02136,0.0011 -1.56259,0.356609 -4.77858,3.13916 -3.70163,3.202735 -3.35273,3.027272 -5.42365,2.727536 -2.17855,-0.315314 -3.47461,-0.123963 -4.78376,0.70628 -1.21484,0.770425 -1.74558,1.799205 -2.08653,4.044497 -0.47689,3.140512 -1.77846,16.51243 -1.90486,19.57 -0.18918,4.576278 -0.23985,4.502094 5.1621,7.557886 5.19535,2.938922 9.41697,7.999471 11.1382,13.351591 1.46875,4.56703 0.94729,10.24452 -1.38374,15.06568 -1.18824,2.45759 -2.43639,4.13417 -4.65756,6.25626 -4.48627,4.28615 -10.03086,6.62568 -16.78843,7.08385 -6.28451,0.42609 -13.56317,-2.08866 -18.6559,-6.44554 -2.805128,-2.39982 -5.36526,-6.49707 -6.468436,-10.35214 -1.191511,-4.16375 -1.160784,-6.88938 0.139142,-12.34224 0.600965,-2.5209 0.655692,-2.99352 0.432786,-3.73751 -0.38711,-1.29206 -1.15418,-2.2837 -2.235069,-2.8894 l -0.975614,-0.54671 h -9.184713 c -9.072294,0 -9.195835,0.006 -10.093446,0.48594 -1.521389,0.81355 -2.011603,1.6735 -2.465516,4.3251 -0.274085,1.60112 -2.493573,23.92488 -2.972193,29.89455 -0.403226,5.0293 -0.587406,4.32479 2.189467,8.37509 2.221607,3.2404 2.51486,3.80197 2.292811,4.39069 -0.09426,0.24992 -0.869674,1.93751 -1.723142,3.75022 -1.603887,3.40654 -1.791798,4.20962 -1.236328,5.28378 0.529374,1.0237 4.098967,4.14187 7.633887,6.66848 3.76453,2.69073 10.710327,6.42323 13.864014,7.45017 1.947172,0.63406 2.872171,0.22743 6.14383,-2.70084 2.51737,-2.25314 3.699565,-3.0838 4.38616,-3.08191 0.86756,0.002 9.69278,1.8603 10.24795,2.15742 0.58529,0.31324 0.95437,1.01644 2.45987,4.68677 1.24677,3.03958 1.89443,3.90073 3.21685,4.27726 1.06317,0.30271 7.29952,0.12245 10.8575,-0.31384 z m -75.354041,-9.04055 c 1.103019,-0.56854 2.194381,-1.74858 2.457827,-2.65754 0.387064,-1.33548 0.830922,-5.43357 2.734117,-25.24378 3.07072,-31.96294 4.25016,-43.663067 4.492035,-44.561318 0.125986,-0.467878 0.552417,-1.203524 0.947624,-1.63477 0.709185,-0.773856 0.748235,-0.786301 2.99374,-0.954213 1.251349,-0.09357 12.340633,-0.175662 24.642852,-0.182421 l 22.367676,-0.01229 1.05116,-0.532666 c 1.07163,-0.543033 2.29918,-1.744319 2.51366,-2.459865 0.39761,-1.326528 2.16528,-19.271384 2.19327,-22.26543 0.0264,-2.828144 -0.231,-3.460175 -1.89671,-4.656654 L 114.919,62.831146 91.003934,62.708162 67.08887,62.585177 66.23764,62.013321 c -0.468178,-0.314521 -1.031238,-0.93829 -1.251247,-1.386154 -0.436337,-0.888239 -0.379261,-2.198134 0.426291,-9.78322 0.440346,-4.146321 0.572844,-4.609928 1.57669,-5.516844 l 0.833405,-0.75293 4.994969,-0.145367 c 2.747232,-0.07995 21.240928,-0.147809 41.097102,-0.150789 l 36.10213,-0.0054 1.04681,-0.767951 c 1.24418,-0.912735 1.80578,-1.768466 2.11895,-3.228731 0.28441,-1.326191 1.87942,-17.075257 2.22968,-22.015829 0.14069,-1.984554 0.18421,-3.98318 0.0967,-4.441392 -0.21166,-1.108308 -1.41743,-2.40752 -2.87378,-3.096482 l -1.16983,-0.553419 -24.23276,0.02383 c -13.32801,0.0131 -39.63355,0.08885 -58.456744,0.16833 l -34.22399,0.144504 -0.916738,0.485703 c -1.23161,0.652528 -1.993159,1.71107 -2.25653,3.136547 -0.300378,1.625757 -2.066082,19.526896 -8.876752,89.994613 -6.465591,66.8973 -6.065816,61.40774 -4.611659,63.32565 1.313703,1.73265 0.79523,1.68336 17.81848,1.69427 14.287469,0.009 14.96899,-0.009 15.745222,-0.40864 z"
           id="path1195"
           transform="matrix(5.7292203,0,0,6.3202991,106.66376,88.345141)" />
        <path
           style="fill:#040404;stroke-width:1.33333;fill-opacity:0.58196723"
           d="m 757.82417,1262.928 c -10.37919,-3.6581 -21.31508,-10.7189 -30.34867,-19.5947 -8.93298,-8.777 -11.97994,-14.0423 -18.47634,-31.9284 l -4.33251,-11.9283 -7.02679,-1.7687 -7.02678,-1.7686 -11.03112,11.0311 c -18.08532,18.0853 -33.43335,24.538 -55.4955,23.3317 -14.57498,-0.797 -22.20697,-3.1583 -41.18218,-12.7416 -39.54883,-19.9739 -63.20781,-36.3921 -104.83435,-72.7503 -4.10754,-3.5876 -7.64107,-6.2876 -7.85229,-6 -0.2112,0.2877 -4.0998,8.1653 -8.64132,17.5057 -12.8368,26.4011 -26.58686,39.145 -50.90966,47.1843 -6.7475,2.2303 -14.68292,2.4584 -99.33333,2.8564 -103.02139,0.4844 -102.20951,0.545 -118.07437,-8.8084 -21.75364,-12.8252 -36.73464,-36.9045 -39.34802,-63.2452 -0.47868,-4.8247 0.34164,-21.15 1.95819,-38.9697 1.53009,-16.8667 4.56941,-51.3667 6.75407,-76.6667 2.18465,-25.29996 4.87269,-56.19996 5.97344,-68.66662 1.10074,-12.46667 3.19676,-36.46667 4.6578,-53.33334 2.8177,-32.52841 16.09466,-184.52571 19.44992,-222.66666 1.09669,-12.46666 8.26686,-94.96666 15.93371,-183.33333 7.66686,-88.36666 14.57011,-167.56666 15.34058,-175.99999 2.27362,-24.88667 9.13378,-105.70163 10.80897,-127.33333 0.95592,-12.34392 2.55012,-23.06243 4.16452,-28 7.50984,-22.96845 26.67111,-42.36419 50.41128,-51.02815 l 9.96991,-3.63852 340.16159,-0.41433 c 312.45944,-0.3806 340.85422,-0.23538 348.66666,1.7832 19.59982,5.06419 35.48402,16.54511 46.73452,33.77916 12.3533,18.92329 14.616,33.36483 11.2055,71.51864 -1.1799,13.2 -4.2533,47.66085 -6.8299,76.57966 -6.4557,72.45876 -6.5117,72.78307 -15.4845,89.61773 -5.8839,11.03935 -29.28438,34.23528 -42.28381,41.91423 -2.29355,1.35483 -4.17008,2.8184 -4.17008,3.25239 0,0.43397 4.95,3.40256 11,6.59685 38.63339,20.39775 74.08499,46.58079 108.09999,79.83818 13.7374,13.43138 18.4908,22.90983 20.7848,41.44578 1.9702,15.91861 -0.229,25.84914 -10.9878,49.617 l -3.4078,7.52849 3.9076,6.16165 3.9076,6.16165 15.7802,-0.13793 c 8.6792,-0.0759 18.4206,0.573 21.6475,1.44193 16.2749,4.38238 33.5073,17.81055 42.5788,33.17903 10.3966,17.61368 23.3134,63.07584 29.3979,103.47001 3.5672,23.68188 5.0993,71.25951 2.6923,83.60511 -2.2177,11.3744 -8.0136,21.77973 -17.132,30.75664 -9.5536,9.4054 -19.5666,15.42973 -34.7389,20.90059 l -11.886,4.2859 -1.3978,6.89254 -1.3979,6.89255 12.4458,12.66667 c 17.5606,17.87226 22.039,28.33186 22.039,51.47301 0,15.44097 -2.5357,23.879 -13.7818,45.86031 -21.334,41.6991 -46.0747,76.0296 -78.8636,109.4326 -15.2549,15.5406 -24.0476,21.1913 -38.1453,24.5144 -17.7123,4.175 -32.3838,2.3307 -52.1875,-6.5604 l -13.21958,-5.935 -6.20346,3.8611 -6.20345,3.8611 0.39047,15.0798 c 0.45408,17.5362 -1.89186,27.1919 -9.81867,40.4131 -9.62831,16.059 -21.73247,25.6882 -40.69281,32.3721 -45.40769,16.0072 -91.49603,24.2851 -145.94092,26.2123 -18.45204,0.6531 -22.25748,0.4294 -28.17581,-1.6564 z m 52.17581,-6.341 c 36.43255,-2.2071 73.30001,-9.3779 110.66666,-21.5249 20.11075,-6.5376 26.60795,-10.0716 35.97464,-19.5678 14.76239,-14.9666 19.31835,-27.2889 19.34287,-52.3159 l 0.0158,-16.1549 8.20837,-5.5117 c 4.51461,-3.0315 9.0276,-5.5118 10.02887,-5.5118 1.00126,0 6.93431,2.3847 13.18451,5.2993 20.1978,9.4188 32.3617,11.3762 48.846,7.8603 17.5738,-3.7483 27.6694,-11.5273 54.2825,-41.8263 26.1023,-29.7175 42.8667,-54.6996 61.0585,-90.9884 l 11.5243,-22.9883 0.5998,-14.55829 c 0.5053,-12.26349 0.1508,-15.99587 -2.2488,-23.67832 -3.9615,-12.68313 -4.8886,-14.03916 -19.5312,-28.56657 l -12.9851,-12.88291 1.6767,-8.88576 c 0.9221,-4.88717 2.6544,-9.99572 3.8494,-11.35232 1.1951,-1.3566 7.5728,-4.37131 14.1728,-6.69933 14.4188,-5.08599 20.6737,-8.60115 29.6243,-16.64849 15.1798,-13.64795 19.1359,-24.70744 19.1681,-53.58556 0.047,-42.41682 -7.3878,-88.60576 -21.0065,-130.49907 -10.6016,-32.61233 -23.2841,-48.38021 -45.6455,-56.75026 -6.3001,-2.35818 -10.2437,-2.77636 -25.1132,-2.6631 -19.6708,0.14984 -18.487,0.6364 -25.7581,-10.58664 -2.138,-3.29999 -3.8981,-6.82918 -3.9115,-7.84262 -0.013,-1.01344 2.7305,-7.91344 6.0975,-15.33333 8.0708,-17.78622 9.949,-26.87919 8.4042,-40.68702 -2.4181,-21.61357 -6.6155,-27.9973 -34.9638,-53.17524 -29.2895,-26.01383 -45.1024,-37.72339 -72.8955,-53.97939 -13.06549,-7.64195 -35.97464,-19.10482 -43.78588,-21.90882 -7.54489,-2.70838 -5.02307,-5.49057 9.32817,-10.29122 23.40751,-7.83008 42.18121,-23.33467 51.73271,-42.72448 5.2996,-10.75822 7.0776,-18.43494 8.6604,-37.3912 0.4287,-5.13333 3.1792,-36.03333 6.1123,-68.66667 7.2953,-81.1649 7.4958,-86.10698 4.0303,-99.30886 -6.6816,-25.45393 -26.7136,-45.49382 -51.99257,-52.01296 -7.90778,-2.03932 -35.21996,-2.17803 -348,-1.76747 l -339.41873,0.44553 -9.33334,3.85383 c -11.58134,4.78206 -19.47144,10.0638 -27.69072,18.53655 -6.62366,6.82793 -13.95073,18.24741 -16.84492,26.25339 -0.92785,2.56666 -3.10557,20.86666 -4.83936,40.66666 -1.73378,19.8 -3.47224,39.6 -3.86324,44 -0.39098,4.4 -1.31602,15.2 -2.05564,24 -0.73961,8.8 -3.12704,36.4 -5.30538,61.33333 -2.17836,24.93333 -5.4969,63.33333 -7.37452,85.33333 -1.87763,22 -3.70594,43 -4.0629,46.66667 -1.07649,11.05777 -8.60389,97.46886 -10.04685,115.33333 -0.74041,9.16667 -3.42961,40.06666 -5.97598,68.66666 -4.60779,51.75307 -7.34288,82.84267 -9.97047,113.33333 -7.89051,91.56198 -28.95133,331.89049 -30.26276,345.33329 -1.96667,20.1595 -1.23724,35.1245 2.20628,45.2639 8.59072,25.2953 23.92765,40.6603 48.08646,48.1744 9.05364,2.816 177.85887,2.7182 191.33333,-0.1108 14.501,-3.0445 27.00248,-9.8753 36.33799,-19.8549 11.98747,-12.8147 17.50937,-25.7167 21.03108,-49.1392 0.97649,-6.4946 3.95389,-6.5538 10.03604,-0.1996 6.5082,6.7994 37.14846,33.0368 50.59489,43.3247 21.91633,16.7682 61.12625,39.425 82.935,47.9225 10.29014,4.0094 28.88804,4.9683 39.05229,2.0135 12.59161,-3.6605 19.168,-7.815 32.67937,-20.6444 6.96667,-6.6151 13.44336,-12.04 14.39264,-12.0554 4.6992,-0.076 19.16506,4.5732 20.15815,6.479 0.61896,1.1878 2.65013,6.7347 4.51369,12.3263 4.99087,14.9751 9.13778,22.3225 17.12379,30.3395 8.25811,8.2901 14.84149,12.7641 25.14506,17.0881 7.7364,3.2466 13.6294,3.3577 52.66667,0.9928 z m -41.33333,-44.3799 c -6.71504,-3.1111 -9.09411,-7.3821 -17.94027,-32.2071 -3.78909,-10.6334 -8.09501,-20.6172 -9.56872,-22.1863 -1.91113,-2.0348 -6.18889,-3.511 -14.91856,-5.1483 -6.73152,-1.2625 -19.25402,-4.0287 -27.8278,-6.1471 -23.74768,-5.8676 -21.20361,-6.7139 -42.34989,14.0879 -18.70245,18.3978 -22.10769,20.7271 -30.30128,20.7271 -5.32565,0 -34.98725,-14.9106 -56.33873,-28.3209 -11.85539,-7.446 -34.04128,-23.8374 -41.43443,-30.6125 -1.84048,-1.6866 -9.13148,-8.3363 -16.20221,-14.7771 -14.34467,-13.0667 -17.75307,-18.5126 -16.7802,-26.8116 0.3532,-3.0128 4.92165,-14.6774 10.15213,-25.9212 5.23048,-11.2438 9.50996,-22.1033 9.50996,-24.1322 0,-2.3523 -3.62709,-9.1965 -10.01082,-18.89 -5.50596,-8.3606 -11.8856,-18.79182 -14.17699,-23.18041 l -4.16616,-7.97925 0.90741,-15.35408 c 0.87376,-14.78471 4.06223,-54.2786 5.3839,-66.68742 0.35148,-3.3 0.95529,-9.9 1.34181,-14.66666 0.90528,-11.16415 4.52608,-52.00684 5.37824,-60.66667 0.36081,-3.66666 1.8776,-20.28432 3.37065,-36.92812 3.33138,-37.13657 5.3718,-42.81543 17.76467,-49.44241 5.44624,-2.91233 6.40375,-2.9628 56.20729,-2.9628 49.2504,0 50.81575,0.0799 56,2.85812 6.67919,3.57936 9.14437,6.29343 12.56407,13.83252 3.39189,7.4778 3.41845,10.96807 0.18073,23.75388 -9.72376,38.39932 -9.38345,61.96284 1.35912,94.10899 15.02684,44.96635 49.66253,77.10561 97.88981,90.83418 14.78675,4.20925 19.97225,4.88361 37.09271,4.82383 45.20625,-0.15787 88.03337,-21.95448 115.26917,-58.66555 26.70305,-35.99298 34.95265,-89.09293 20.19286,-129.97465 -7.86182,-21.77573 -19.80016,-40.60966 -36.02739,-56.8369 -10.60464,-10.60464 -14.61062,-13.59916 -32.3618,-24.19088 -8.43338,-5.032 -16.46159,-10.9264 -18.77862,-13.78746 -3.93712,-4.86156 -4.05186,-5.40284 -4.21372,-19.87686 -0.0915,-8.18356 0.91058,-25.97922 2.22686,-39.54588 1.31629,-13.56667 2.75709,-28.86667 3.2018,-34 6.03189,-69.62859 6.70658,-73.59451 13.80846,-81.16813 7.54604,-8.0473 18.22164,-10.4871 31.9856,-7.31 3.6262,0.83702 8.0237,1.16281 9.77222,0.72397 1.7485,-0.43885 10.97738,-8.53553 20.50861,-17.99263 9.53122,-9.45709 18.64006,-17.88287 20.24185,-18.72395 6.71424,-3.5256 13.11628,-1.91347 32.80708,8.26134 37.77852,19.52127 65.47083,39.34031 96.04843,68.74064 15.6862,15.08235 15.6616,15.87591 -1.6314,52.57169 -4.032,8.55592 -6.8031,16.28935 -6.8031,18.98559 0,3.46849 2.6134,8.49128 11,21.1413 6.05,9.1256 13.4,20.5793 16.3333,25.45266 2.9333,4.87337 6.5333,9.5458 8,10.38317 1.7125,0.97772 11.7921,1.58061 28.1691,1.68487 29.2872,0.18644 32.3143,1.11656 37.5983,11.5523 5.8323,11.51892 17.2455,53.82578 20.241,75.03051 0.8288,5.86666 1.7656,12.26633 2.0819,14.22148 1.7663,10.9192 3.1997,30.31808 3.2199,43.57701 0.025,16.27235 -1.7304,22.68528 -7.1762,26.21812 -1.5404,0.99929 -12.4007,5.22809 -24.134,9.39735 -24.9218,8.85556 -27.6625,10.94657 -29.8961,22.80896 -0.8054,4.27738 -3.5654,16.77707 -6.1333,27.77707 -2.568,11 -4.6619,21.71359 -4.6531,23.80798 0.013,3.08212 3.4138,7.27561 17.8422,22 9.8045,10.00561 18.5045,19.50258 19.3334,21.10437 3.2721,6.32387 1.7861,12.76097 -6.8948,29.86605 -18.9516,37.34286 -34.5131,59.54906 -65.9766,94.14836 -12.2183,13.436 -19.1689,17.4971 -27.1978,15.8913 -2.3609,-0.4721 -13.588,-5.1494 -24.9491,-10.3938 -11.361,-5.2445 -22.36102,-9.5354 -24.44439,-9.5354 -2.49933,0 -8.42175,3.1668 -17.40917,9.3088 -7.49168,5.1199 -18.48307,12.1252 -24.42531,15.5674 -16.62695,9.6317 -15.9292,8.127 -15.47891,33.3822 0.4996,28.0205 -0.0808,31.7719 -5.91516,38.2298 -5.2307,5.7898 -14.2887,9.2198 -47.13518,17.849 -31.80421,8.3553 -59.24915,12.1638 -90.66667,12.5815 -12.42466,0.1652 -16.34504,-0.2648 -20.66666,-2.2671 z m 62.66666,-8.8875 c 29.69112,-3.8919 80.03371,-16.8049 88.28152,-22.6443 4.64507,-3.2887 5.58736,-9.7242 4.84077,-33.0607 -0.66418,-20.7609 -0.56834,-21.8497 2.42644,-27.5669 2.48068,-4.7358 5.16175,-7.1517 13.11794,-11.8207 5.5,-3.2277 17.73849,-11.0145 27.19664,-17.3041 22.38186,-14.8839 22.02064,-14.8726 50.13668,-1.564 25.5065,12.0734 28.0996,12.3515 36.7745,3.9441 8.5346,-8.2714 29.9125,-33.1516 39.4987,-45.9697 15.3569,-20.5342 39.7268,-64.82191 39.7268,-72.19583 0,-3.10817 -2.4852,-6.31047 -12.8029,-16.49716 -7.0416,-6.95219 -15.7416,-16.12148 -19.3333,-20.37623 -8.0336,-9.51648 -8.2763,-12.78116 -2.6272,-35.34209 2.1468,-8.57377 4.9082,-21.13336 6.1364,-27.91018 1.617,-8.92231 3.2492,-13.72423 5.9164,-17.40618 3.8619,-5.33128 2.6737,-4.77074 38.7106,-18.26113 6.9667,-2.60797 13.7167,-5.99385 15,-7.52419 5.7023,-6.79976 0.6078,-64.96377 -9.1518,-104.48699 -4.7252,-19.13592 -12.2507,-41.30452 -15.3656,-45.26452 -2.6652,-3.38818 -2.762,-3.40218 -23.5794,-3.40987 -25.9537,-0.009 -35.4666,-1.4224 -40.2161,-5.97269 -1.9404,-1.85904 -6.4448,-8.32396 -10.0097,-14.3665 -3.565,-6.04253 -10.8758,-17.48193 -16.2462,-25.42088 -13.1464,-19.43377 -13.1435,-20.03553 0.2355,-49.26225 5.5,-12.01486 10,-23.01521 10,-24.44521 0,-4.3524 -5.2959,-10.48463 -21.3334,-24.70256 -27.7239,-24.57849 -50.83773,-40.34792 -84.54114,-57.67837 -7.99767,-4.11243 -16.22679,-7.47715 -18.28695,-7.47715 -4.43848,0 -9.45507,4.08419 -25.08029,20.41881 -14.76024,15.43035 -20.55316,18.86882 -29.8212,17.70075 -18.68744,-2.35523 -20.16893,-2.33915 -24.93704,0.27053 -6.56404,3.59266 -10.1288,10.61274 -11.19287,22.04214 -12.75321,136.98519 -12.76189,137.11695 -9.48968,144.01265 1.78156,3.75436 4.68838,6.31861 11.85476,10.45773 18.12886,10.47075 28.21068,17.579 37.32246,26.31444 34.7037,33.27036 52.89367,80.70124 47.59922,124.11628 -4.58867,37.62753 -18.13845,67.02249 -42.09389,91.31861 -31.00727,31.44821 -66.72573,46.41554 -110.66667,46.37332 -15.7408,-0.0151 -20.70108,-0.55426 -31.64599,-3.43956 -39.21411,-10.33766 -71.0377,-32.1375 -91.26158,-62.51612 -13.13404,-19.72885 -20.6907,-39.69093 -25.17336,-66.49915 -2.74858,-16.43769 -1.4787,-33.42704 4.35366,-58.24678 5.50249,-23.41599 4.62124,-29.38342 -5.45048,-36.90793 -3.51668,-2.6273 -5.66867,-2.76824 -48.58428,-3.18208 -24.69755,-0.23816 -47.45177,-0.0519 -50.56496,0.41408 -6.20205,0.92818 -12.71599,5.63405 -15.64856,11.30502 -2.78513,5.38585 -21.99741,220.01008 -20.29781,226.751 0.45709,1.81294 6.8556,12.53234 14.21889,23.82094 17.14632,26.2867 17.05228,24.7826 3.38781,54.1849 -5.5,11.8345 -10,23.1521 -10,25.1503 0,9.1826 44.6604,47.4858 78.63714,67.4434 24.25329,14.2462 41.28087,22.6967 45.73342,22.6967 3.42785,0 6.84513,-2.7205 21.51888,-17.1311 9.59413,-9.4221 18.9274,-18.1221 20.74057,-19.3333 4.75279,-3.175 12.74571,-2.7304 30.44798,1.6934 8.57377,2.1426 20.94408,4.8817 27.48956,6.0869 12.6518,2.3295 17.35866,4.1826 21.0868,8.3022 1.27309,1.4067 5.54761,11.5181 9.49891,22.4698 9.72687,26.9595 9.59876,26.6734 13.09591,29.2383 2.70085,1.9808 5.65263,2.1685 23.75083,1.5097 11.36666,-0.4137 27.86666,-1.696 36.66666,-2.8496 z m -608.66665,-47.7419 c -2.56667,-0.9451 -5.64217,-2.2867 -6.83445,-2.9814 -3.94888,-2.3007 -9.24691,-9.6934 -11.33165,-15.8118 -1.9008,-5.5786 -1.7966,-8.9188 1.38542,-44.4084 2.94753,-32.8744 9.22989,-104.40759 14.14348,-161.04279 0.76348,-8.8 1.66684,-19 2.00748,-22.66667 0.34063,-3.66666 1.80108,-20.16666 3.24544,-36.66666 1.44435,-16.5 4.4644,-51 6.71121,-76.66667 2.24682,-25.66666 5.5784,-63.76666 7.40352,-84.66666 4.46858,-51.17096 6.45183,-73.77211 11.232,-128 2.2302,-25.3 6.1361,-70 8.67978,-99.33333 6.34273,-73.14324 11.2679,-129.35353 12.03322,-137.33333 0.35166,-3.66667 2.46624,-27.36666 4.69908,-52.66666 9.4936,-107.57091 10.67136,-118.8868 12.81571,-123.13249 3.00275,-5.94528 7.03948,-10.06532 12.71239,-12.9747 4.75341,-2.4378 15.06168,-2.53713 338.66665,-3.26372 l 333.76404,-0.74938 7.26648,3.72681 c 9.06964,4.65161 14.31832,11.13848 15.98049,19.75031 1.15245,5.971 -0.76403,34.90019 -5.82823,87.9765 -0.34984,3.66667 -0.96933,10.56667 -1.37662,15.33333 -5.23716,61.29192 -6.02191,67.1732 -9.77939,73.29209 -2.01253,3.27732 -6.24652,7.77732 -9.40885,10 l -5.74971,4.04124 -232.21874,0.31671 c -127.72032,0.17419 -233.55776,0.63285 -235.1943,1.01927 -4.54872,1.074 -12.0344,8.29149 -13.54943,13.064 -2.01596,6.35046 -8.42529,79.53189 -7.43454,84.88728 1.32749,7.17568 4.11614,11.51171 9.59386,14.91735 l 5.03232,3.12872 136.21924,0.66667 136.21923,0.66667 5.78076,4.0592 c 11.61547,8.15629 13.65791,15.90629 11.40447,43.27413 -5.39516,65.52415 -11.07716,123.77381 -12.42079,127.33333 -2.07764,5.504 -7.61941,11.29879 -13.64332,14.26621 l -6.22626,3.06712 -136.66666,0.30898 c -86.95718,0.1966 -138.40623,0.79858 -141.44927,1.65505 -9.95982,2.80323 -14.14913,9.74685 -15.95872,26.451 -0.69026,6.37173 -3.6386,38.88497 -6.55185,72.25164 -2.91325,33.36666 -6.22949,71.16666 -7.36943,84 -1.13992,12.83333 -3.84962,44.03333 -6.02156,69.33333 -3.43345,39.99498 -6.11952,70.50472 -8.56914,97.33332 -0.36828,4.0333 -1.30595,14.8333 -2.08371,24 -6.19671,73.0336 -7.51271,83.6072 -11.18589,89.875 -2.25718,3.8516 -5.83923,7.401 -9.84587,9.7562 l -6.29789,3.7021 -84.66667,0.3148 c -66.42232,0.2469 -85.67226,-0.055 -89.33333,-1.4037 z m 176.10442,-9.2761 c 7.29256,-4.9145 10.0501,-10.2297 10.99596,-21.1951 0.46366,-5.3753 3.53555,-40.0732 6.82642,-77.1065 3.29086,-37.0334 8.10036,-91.63336 10.68776,-121.33336 2.5874,-29.7 5.00469,-57.29999 5.37176,-61.33333 0.36706,-4.03333 1.56426,-17.53333 2.66042,-30 11.89108,-135.23713 12.62083,-142.11894 15.7317,-148.35699 4.5016,-9.0268 10.83905,-13.54095 21.09078,-15.02288 4.76068,-0.68819 66.9758,-1.24502 140.77731,-1.25998 90.13315,-0.0183 133.44181,-0.47841 135.99999,-1.44497 5.21592,-1.97071 10.77307,-7.57729 12.35849,-12.46844 1.05771,-3.26312 7.4176,-71.58812 12.79395,-137.44673 0.65807,-8.06113 0.34203,-10.14064 -2.31853,-15.25608 -5.84527,-11.23864 5.02282,-10.41813 -147.11285,-11.10652 -133.43065,-0.60376 -134.75056,-0.63576 -140.16561,-3.39832 -6.62877,-3.38175 -11.67709,-9.13395 -13.88341,-15.8192 -1.51536,-4.59157 -1.08638,-36.60384 0.631,-47.08654 0.30034,-1.83334 0.92286,-8.43334 1.38337,-14.66667 1.24247,-16.81803 3.41996,-32.19576 4.99528,-35.2774 2.54832,-4.98504 9.67145,-11.56277 15.33197,-14.15805 5.45073,-2.4991 11.48436,-2.56455 236.38644,-2.56455 226.94706,0 230.87868,-0.0437 235.93879,-2.62521 10.01696,-5.11028 10.25799,-6.07696 15.34829,-61.55596 2.51404,-27.40036 5.83834,-64.73677 7.38732,-82.96981 l 2.81635,-33.15097 -3.06869,-6.15999 c -1.88432,-3.78252 -4.86982,-7.19784 -7.73536,-8.84903 -4.64892,-2.6788 -5.92656,-2.68797 -336,-2.41261 -182.23332,0.15203 -333.30861,0.63396 -335.72287,1.07096 -6.40006,1.15848 -11.8745,7.55811 -13.49773,15.77889 -0.74648,3.78055 -4.37139,40.77373 -8.05532,82.20707 -5.82228,65.48332 -40.47539,461.54816 -46.07992,526.66665 -1.10452,12.83333 -4.11915,47.33333 -6.69917,76.66667 -2.58004,29.33333 -6.47802,74.03333 -8.66218,99.33333 -11.23569,130.14722 -13.24822,153.23652 -13.9249,159.75732 -1.17866,11.3578 4.47856,21.5019 13.49884,24.2051 2.09546,0.6279 41.0712,1.1933 86.61276,1.2563 l 82.80281,0.1147 z"
           id="path649" />
        <path
           style="fill:#460000;fill-opacity:0.50819671;stroke:#000000;stroke-width:0.437367;stroke-linecap:round;stroke-linejoin:round;stroke-dashoffset:128.504;paint-order:markers fill stroke;stroke-opacity:0.46721312"
           d="m 26.679404,167.62897 c -5.89453,-0.10903 -6.383731,-0.14815 -6.935972,-0.55467 -0.851069,-0.62649 -1.343378,-1.77875 -1.308074,-3.06157 0.01655,-0.60138 1.457757,-15.90377 3.202681,-34.0053 1.744925,-18.10154 4.699875,-48.755522 6.566556,-68.119959 4.003777,-41.534076 4.615922,-47.409951 5.020044,-48.186574 0.165959,-0.318933 0.564973,-0.825898 0.886698,-1.126588 L 34.69629,12.0276 83.718631,11.838888 c 27.491169,-0.105828 53.312969,-0.105828 58.791279,0 l 9.76895,0.188712 0.58463,0.546709 c 0.85518,0.799693 1.279,1.741565 1.23003,2.733546 -0.0691,1.400595 -1.75614,18.539982 -2.12019,21.540339 -0.54507,4.492287 -0.88592,5.242638 -2.59816,5.719682 -0.63918,0.17808 -12.25675,0.284922 -41.34545,0.380238 l -40.456474,0.132564 -0.765393,0.477611 c -1.286831,0.802994 -2.204698,1.90983 -2.435458,2.936865 -0.427607,1.903145 -0.876116,6.733547 -0.982484,10.581277 -0.101826,3.683393 -0.08029,3.981545 0.335224,4.640414 0.702561,1.114038 2.071805,1.981987 3.369471,2.135875 0.62408,0.07401 11.369085,0.214303 23.87779,0.311764 18.492504,0.144086 22.905814,0.233961 23.613724,0.480881 0.65764,0.229388 0.99878,0.536079 1.39452,1.253693 l 0.52391,0.950017 -0.58338,6.266544 c -0.90315,9.701532 -1.6451,16.265691 -1.91481,16.940685 -0.13509,0.33808 -0.59247,0.879322 -1.01641,1.20276 l -0.77079,0.588066 -23.744398,0.155545 c -13.059422,0.08555 -24.250956,0.21438 -24.870075,0.28629 -1.55405,0.180499 -2.946983,1.101623 -3.550192,2.347683 -0.619874,1.280489 -0.853714,3.406538 -4.395482,39.963132 -1.567312,16.17712 -2.910095,29.70818 -2.983964,30.069 -0.22451,1.09666 -0.709379,1.83557 -1.653074,2.51918 l -0.899701,0.65174 -8.550522,-0.0467 c -4.702787,-0.0257 -11.404343,-0.0995 -14.892348,-0.16402 z"
           id="path1053"
           transform="matrix(5.7292203,0,0,6.3202991,106.66376,88.345141)" />
        <path
           style="fill:#000049;fill-opacity:0.50491804;stroke:#000000;stroke-width:0.437367;stroke-linecap:round;stroke-linejoin:round;stroke-dashoffset:128.504;paint-order:markers fill stroke;stroke-opacity:0.50327867"
           d="m 115.81894,176.20435 c -0.3489,-0.35179 -1.07002,-1.78128 -1.73748,-3.44427 -1.49323,-3.72038 -1.95265,-4.51138 -2.88275,-4.96336 -0.82342,-0.40013 -10.4013,-2.36254 -11.530801,-2.36254 -1.117972,0 -1.548766,0.2792 -4.86855,3.15539 -1.744002,1.51097 -3.380997,2.80466 -3.637769,2.87487 -0.978916,0.26767 -7.728848,-2.96691 -11.998111,-5.7495 -4.489263,-2.92599 -8.703698,-6.29761 -9.517253,-7.61397 l -0.478301,-0.77391 1.717522,-3.5457 c 2.161373,-4.46199 2.225555,-5.0718 0.756739,-7.18992 -0.528431,-0.76202 -1.59837,-2.31627 -2.377642,-3.45387 l -1.416858,-2.06836 0.1495,-2.30531 c 0.359327,-5.54085 2.129123,-23.62328 2.951055,-30.15165 0.431471,-3.42704 0.652308,-3.94519 1.98638,-4.66067 0.696509,-0.37354 1.393079,-0.40487 8.999426,-0.40487 5.293423,0 8.46484,0.0832 8.8601,0.23259 0.929613,0.35123 1.796523,1.28735 1.95005,2.10572 0.08995,0.47945 -0.116019,1.83934 -0.598655,3.95267 -0.660423,2.89179 -0.734285,3.54651 -0.721193,6.39267 0.0117,2.5444 0.108041,3.50923 0.487575,4.88324 2.22234,8.04539 7.501988,13.80464 15.571086,16.98558 7.87277,3.10353 17.94639,2.23674 24.91389,-2.14374 7.69785,-4.83965 11.84681,-11.93533 11.84745,-20.26189 4.4e-4,-5.70555 -2.27314,-11.08078 -6.55854,-15.50579 -2.20294,-2.274702 -3.56986,-3.305806 -6.85608,-5.171687 -3.79609,-2.155388 -3.78119,-2.135964 -3.7464,-4.883521 0.0374,-2.953075 1.76379,-20.066222 2.1691,-21.501629 0.30132,-1.067099 1.23225,-2.184961 1.91986,-2.305365 0.14112,-0.02471 1.53588,-0.04931 3.09947,-0.05467 2.83413,-0.0097 2.84591,-0.01188 3.82696,-0.703774 0.54124,-0.381717 1.94108,-1.569257 3.11074,-2.638979 2.74419,-2.509705 2.96031,-2.624552 4.2803,-2.274621 1.48949,0.394864 7.18426,3.248371 10.07578,5.048723 4.20951,2.620973 9.87957,7.116772 10.54594,8.361894 0.18777,0.350851 -0.0772,1.0698 -1.45876,3.958336 -1.69777,3.549616 -2.06353,4.833108 -1.66502,5.842711 0.22877,0.579575 4.36923,6.524293 5.53881,7.952418 1.1057,1.350122 1.73236,1.512193 6.20172,1.603928 5.35645,0.109944 5.25044,0.0859 5.87882,1.333352 2.21889,4.404912 4.28997,14.159124 4.28997,20.204514 0,2.64174 -0.0726,2.70979 -4.59236,4.30403 -1.98455,0.7 -3.92713,1.43764 -4.31685,1.6392 -0.91031,0.47081 -1.47058,1.58688 -2.00957,4.00315 -0.23688,1.06191 -0.68143,2.86562 -0.98789,4.00824 -0.30645,1.14262 -0.55744,2.5806 -0.55775,3.19551 -6.5e-4,1.37065 0.29481,1.77363 3.49839,4.77131 2.66542,2.49409 3.0501,2.93196 3.05671,3.47933 0.0129,1.07018 -4.02311,7.73085 -6.76921,11.17123 -0.76084,0.9532 -2.83437,3.20548 -4.60784,5.00506 l -3.22449,3.27196 -1.06145,-0.10359 c -0.5838,-0.057 -1.94712,-0.47284 -3.0296,-0.92415 -4.32787,-1.80434 -5.41105,-2.14152 -6.43569,-2.00337 -0.67963,0.0916 -2.14753,0.81066 -4.92038,2.41016 -2.17348,1.25377 -4.31605,2.5282 -4.76126,2.83208 -1.36405,0.93104 -1.48749,1.39221 -1.54494,5.77167 -0.0631,4.8076 -0.0702,4.82343 -2.53145,5.60094 -6.18998,1.95541 -15.54749,3.41358 -21.90601,3.41358 -1.65142,0 -1.82307,-0.0434 -2.37644,-0.60138 z"
           id="path1124"
           transform="matrix(5.7292203,0,0,6.3202991,106.66376,88.345141)" />
      </g>
      <text
         xml:space="preserve"
         style="font-style:normal;font-variant:normal;font-weight:bold;font-stretch:normal;font-size:149.64px;line-height:1.25;font-family:Corbel;-inkscape-font-specification:'Corbel Bold';stroke-width:9.89808;fill:#000000;fill-opacity:0.61311477"
         x="151.18172"
         y="2347.2429"
         id="text4908"
         transform="scale(0.93332598,1.071437)"><tspan
           sodipodi:role="line"
           id="tspan4906"
           style="font-style:normal;font-variant:normal;font-weight:bold;font-stretch:normal;font-size:149.64px;font-family:Evolventa;-inkscape-font-specification:'Evolventa Bold';stroke-width:9.89808;fill:#000000;fill-opacity:0.61311477"
           x="151.18172"
           y="2347.2429">Your own 3D parametric modeler</tspan></text>
    </g>
  </g>
</svg>
